HIERARCHY
ROOT root
{
	OFFSET 0.000000 0.000000 0.000000
	CHANNELS 6 Xposition Yposition Zposition Zrotation Yrotation Xrotation
	JOINT lhip
	{
		OFFSET 0.058581 -0.082280 -0.017664
		CHANNELS 3 Zrotation Yrotation Xrotation
		JOINT lknee
		{
			OFFSET 0.043451 -0.386469 0.008037
			CHANNELS 3 Zrotation Yrotation Xrotation
			JOINT lankle
			{
				OFFSET -0.014790 -0.426874 -0.037428
				CHANNELS 3 Zrotation Yrotation Xrotation
				JOINT ltoe
				{
					OFFSET 0.041054 -0.060286 0.122042
					CHANNELS 3 Zrotation Yrotation Xrotation
					End Site
					{
						OFFSET 0.000000 0.000000 0.000000
					}
				}
			}
		}
	}
	JOINT rhip
	{
		OFFSET -0.060310 -0.090513 -0.013543
		CHANNELS 3 Zrotation Yrotation Xrotation
		JOINT rknee
		{
			OFFSET -0.043257 -0.383688 -0.004843
			CHANNELS 3 Zrotation Yrotation Xrotation
			JOINT rankle
			{
				OFFSET 0.019056 -0.420046 -0.034562
				CHANNELS 3 Zrotation Yrotation Xrotation
				JOINT rtoe
				{
					OFFSET -0.034840 -0.062106 0.130323
					CHANNELS 3 Zrotation Yrotation Xrotation
					End Site
					{
						OFFSET 0.000000 0.000000 0.000000
					}
				}
			}
		}
	}
	JOINT lowerback
	{
		OFFSET 0.004439 0.124404 -0.038385
		CHANNELS 3 Zrotation Yrotation Xrotation
		JOINT upperback
		{
			OFFSET 0.004488 0.137956 0.026820
			CHANNELS 3 Zrotation Yrotation Xrotation
			JOINT chest
			{
				OFFSET -0.002265 0.056032 0.002855
				CHANNELS 3 Zrotation Yrotation Xrotation
				JOINT lowerneck
				{
					OFFSET -0.013390 0.211636 -0.033468
					CHANNELS 3 Zrotation Yrotation Xrotation
					JOINT upperneck
					{
						OFFSET 0.010113 0.088937 0.050410
						CHANNELS 3 Zrotation Yrotation Xrotation
						End Site
						{
							OFFSET 0.000000 0.000000 0.000000
						}
					}
				}
				JOINT lclavicle
				{
					OFFSET 0.071702 0.114000 -0.018898
					CHANNELS 3 Zrotation Yrotation Xrotation
					JOINT lshoulder
					{
						OFFSET 0.122921 0.045205 -0.019046
						CHANNELS 3 Zrotation Yrotation Xrotation
						JOINT lelbow
						{
							OFFSET 0.255332 -0.015649 -0.022946
							CHANNELS 3 Zrotation Yrotation Xrotation
							JOINT lwrist
							{
								OFFSET 0.265709 0.012698 -0.007375
								CHANNELS 3 Zrotation Yrotation Xrotation
								End Site
								{
									OFFSET 0.000000 0.000000 0.000000
								}
							}
						}
					}
				}
				JOINT rclavicle
				{
					OFFSET -0.082954 0.112472 -0.023707
					CHANNELS 3 Zrotation Yrotation Xrotation
					JOINT rshoulder
					{
						OFFSET -0.113228 0.046853 -0.008472
						CHANNELS 3 Zrotation Yrotation Xrotation
						JOINT relbow
						{
							OFFSET -0.260127 -0.014369 -0.031269
							CHANNELS 3 Zrotation Yrotation Xrotation
							JOINT rwrist
							{
								OFFSET -0.269108 0.006794 -0.006027
								CHANNELS 3 Zrotation Yrotation Xrotation
								End Site
								{
									OFFSET 0.000000 0.000000 0.000000
								}
							}
						}
					}
				}
			}
		}
	}
}
MOTION
Frames: 8
Frame Time: 0.033333
-0.142902 1.738788 0.928769 -46.012180 -1.600358 93.790913 -1.928927 -6.538355 -29.789966 -1.561266 15.648778 32.774328 7.258971 11.655824 -20.715584 0.000000 -0.000000 0.000000 -0.192743 1.553117 -16.342936 -6.078391 -9.348997 57.810574 3.614414 -7.550506 -22.461692 0.000000 -0.000000 0.000000 1.106000 0.873465 33.050710 -0.599306 -5.353510 12.931670 0.787817 -0.662241 1.532339 -5.517549 -2.993854 4.365111 5.406786 9.302846 -13.719708 -19.669594 -14.175080 -0.642345 -60.724999 -13.808655 6.231355 72.246742 -67.903668 -48.245734 9.998760 -5.154971 -11.345688 14.841684 18.834546 1.283940 61.853959 10.018850 12.742577 -73.506583 69.546311 -48.790686 -6.575669 9.214005 -3.022397 
-0.145919 1.732220 0.928993 -45.982825 -1.526899 93.864540 -2.059862 -6.522487 -29.462983 -1.608486 15.621976 32.908466 7.390658 11.706794 -21.316522 0.000000 -0.000000 0.000000 -0.572820 1.512679 -16.788529 -6.027146 -9.199275 59.089155 4.126861 -6.947584 -20.846189 0.000000 -0.000000 0.000000 1.132484 0.751705 33.008760 -0.537404 -5.384181 12.989183 0.756903 -0.666911 1.544177 -5.571124 -3.007638 4.470315 5.356202 9.359437 -13.805863 -19.632053 -14.297077 -0.669347 -60.785647 -13.896725 6.278699 72.118930 -67.859308 -48.214872 9.943388 -5.259256 -11.211412 14.843521 18.816108 1.217297 61.783558 9.995651 12.785000 -73.342767 69.467342 -48.789024 -6.475412 9.196238 -2.891489 
-0.148726 1.726294 0.929145 -45.982858 -1.456609 93.980800 -2.183207 -6.502180 -29.187216 -1.645303 15.572829 32.993553 7.629444 11.799876 -21.910002 0.000000 -0.000000 0.000000 -0.980677 1.574857 -17.538252 -5.908916 -8.943769 60.667888 4.717058 -6.366298 -18.855030 0.000000 -0.000000 0.000000 1.102665 0.617662 32.965618 -0.481227 -5.322652 12.955618 0.727574 -0.661678 1.602703 -5.579509 -3.051924 4.491642 5.310363 9.429152 -13.853765 -19.581367 -14.340152 -0.716119 -60.861505 -13.989217 6.370655 72.072314 -67.900263 -48.292228 9.902384 -5.358901 -11.016583 14.856899 18.736991 1.124919 61.729323 9.985691 12.892794 -73.232672 69.387238 -48.890864 -6.330014 9.211076 -2.718917 
-0.151282 1.720851 0.929379 -45.953563 -1.360668 94.074934 -2.273017 -6.532942 -28.950201 -1.672508 15.406813 33.086109 7.877978 11.926815 -22.397156 0.000000 -0.000000 0.000000 -1.449480 1.664097 -18.648998 -5.774432 -8.670933 62.694978 5.351647 -5.709491 -16.298147 0.000000 -0.000000 0.000000 1.070064 0.459478 33.044328 -0.395511 -5.220276 12.844021 0.728063 -0.663587 1.641202 -5.617425 -3.115859 4.505749 5.269076 9.524102 -13.944507 -19.588844 -14.384292 -0.730075 -60.912291 -14.032933 6.447857 72.245095 -67.980295 -48.558267 9.853194 -5.465325 -10.765157 14.887605 18.691050 1.074628 61.604638 9.978866 12.964615 -73.235742 69.311230 -49.106762 -6.224803 9.195669 -2.554365 
-0.153694 1.715852 0.929672 -45.884223 -1.222567 94.117911 -2.276575 -6.596345 -28.639658 -1.752565 15.180537 33.063852 8.155345 12.039245 -22.883068 0.000000 -0.000000 0.000000 -2.016914 1.768363 -20.102415 -5.622340 -8.557643 65.147069 6.074277 -5.027203 -13.080567 0.000000 -0.000000 0.000000 1.027984 0.254530 33.202607 -0.286184 -5.078387 12.765127 0.734174 -0.665322 1.650531 -5.633653 -3.181463 4.533965 5.237143 9.585899 -14.089309 -19.607797 -14.438653 -0.720408 -60.938190 -14.078366 6.532350 72.518724 -68.005818 -48.973265 9.695267 -5.577270 -10.444216 14.957089 18.675247 1.063726 61.404974 10.043680 13.033257 -73.264736 69.205970 -49.355174 -6.032368 9.188101 -2.367638 
-0.156012 1.711446 0.929930 -45.859206 -1.053621 94.121188 -2.228014 -6.533234 -28.278768 -1.920459 14.970887 32.990548 8.428593 12.204667 -23.389057 0.000000 -0.000000 0.000000 -2.687525 1.874806 -22.022339 -5.489613 -8.433727 68.082113 7.027171 -4.306649 -8.949913 0.000000 -0.000000 0.000000 0.933276 0.017306 33.447703 -0.190846 -4.851881 12.604009 0.734399 -0.661804 1.713061 -5.621286 -3.249587 4.546210 5.233569 9.639565 -14.149618 -19.613489 -14.481986 -0.705006 -60.895837 -14.119588 6.579764 72.629450 -68.008654 -49.224903 9.503566 -5.693141 -10.095608 15.044025 18.642385 1.031961 61.235936 10.180488 13.166688 -73.149016 69.049737 -49.483430 -5.805807 9.170723 -2.188917 
-0.158051 1.707904 0.930206 -45.918442 -0.864462 94.116262 -2.070489 -6.375021 -28.033723 -2.126831 14.779418 33.054149 8.689008 12.276619 -23.786561 0.000000 -0.000000 0.000000 -3.464271 2.025948 -24.630083 -5.263968 -8.045776 71.526094 8.058418 -3.469854 -3.727543 0.000000 -0.000000 0.000000 0.797717 -0.258732 33.866052 -0.120572 -4.522381 12.271291 0.709605 -0.646649 1.839812 -5.636213 -3.284129 4.469078 5.244636 9.666442 -14.173409 -19.587206 -14.469077 -0.703957 -60.797453 -14.171295 6.561944 72.632144 -68.045110 -49.396377 9.257267 -5.843731 -9.676658 15.119800 18.555134 0.999316 61.144926 10.398091 13.345662 -73.121300 68.903433 -49.671273 -5.612145 9.139402 -2.032509 
-0.159906 1.704690 0.930418 -46.067314 -0.735735 94.025484 -1.965605 -6.130923 -27.661954 -2.357660 14.658067 32.970004 9.029859 12.381833 -24.030925 0.000000 -0.000000 0.000000 -4.492590 2.383356 -27.638856 -4.390965 -7.265534 74.940316 8.981363 -2.296946 2.169743 0.000000 -0.000000 0.000000 0.615508 -0.557952 34.482493 -0.093787 -4.131149 11.975403 0.654855 -0.646589 1.874510 -5.753230 -3.254816 4.439628 5.265078 9.675290 -14.415904 -19.588551 -14.483007 -0.671957 -60.597715 -14.198074 6.514999 72.850989 -68.022044 -49.867297 9.009341 -5.978969 -9.249822 15.242544 18.496220 1.078609 61.036075 10.700452 13.523522 -73.468773 68.755497 -50.192965 -5.385118 9.077629 -1.899401 
